# xmcd CD database file
#
# Track frame offsets:
#	150
#	21440
#	51112
#	69457
#	89727
#	101655
#	122947
#	144982
#	165260
#	196317
#	215305
#	235062
#
# Disc length: 3290 seconds
#
# Revision: 0
# Processed by: cddbd v1.5.2PL0 Copyright (c) Steve Scherf et al.
# Submitted via: CDex 1.70beta2
#
DISCID=a60cd80c
DTITLE=Hoola Bandoola Band - Ingenting förändras av sig själv
DYEAR=1996
DGENRE=Protestviser
TTITLE0=Vem kan man lita på
TTITLE1=Keops pyramid
TTITLE2=Man måste veta vad man önskar sig
TTITLE3=Herkules
TTITLE4=Garanterat
TTITLE5=Vävare Lasse
TTITLE6=Juanita
TTITLE7=Victor Jara
TTITLE8=Hur länge skall vi vänta
TTITLE9=Ingenting förändras av sig själv
TTITLE10=Karins sång
TTITLE11=På väg
EXTD=YEAR: 1996
EXTT0=
EXTT1=
EXTT2=
EXTT3=
EXTT4=
EXTT5=
EXTT6=
EXTT7=
EXTT8=
EXTT9=
EXTT10=
EXTT11=
PLAYORDER=
